<?xml version="1.0" encoding="utf-8"?>
<!-- Generator: Adobe Illustrator 28.0.0, SVG Export Plug-In . SVG Version: 6.00 Build 0)  -->
<svg version="1.1" xmlns="http://www.w3.org/2000/svg" xmlns:xlink="http://www.w3.org/1999/xlink" x="0px" y="0px"
	 viewBox="0 0 2000 2000" style="enable-background:new 0 0 2000 2000;" xml:space="preserve">
<style type="text/css">
	.st0{fill:#71446E;}
	.st1{fill:#FFFFFF;}
	.st2{fill:#FCE6EE;}
	.st3{fill:#F19BB6;}
	.st4{fill:#DBCBF9;}
	.st5{fill:#C8BBED;}
	.st6{fill:#8DD7F7;}
	.st7{fill:#6DBFDA;}
	.st8{fill:#FCE6F0;}
</style>
<g id="TEXT">
</g>
<g id="LOGO">
	<g>
		<path class="st0" d="M1726.6,1547.2c5.7,26.9,8.4,55.8,7.1,86c-0.3,6.2-0.7,12.4-1.3,18.5h54.4v50H200.3v-50h90.2
			c-6.2-16.7-11-34.6-13.8-52.7c-29.7-60.9-49-124.4-57.8-189.3c-8.5-62.7-7.6-126.3,1.8-188.9c-41.6-46.6-59.6-88.4-61.8-132.8
			c-35-15.5-55.5-56.3-56.8-99.4c-47.3-59.6-45.9-144-28.2-218.3c138.6-77.9,324.8-105.9,481.5-74.7
			c54.2-50.2,126.3-84.6,187.2-107.6c84-31.8,210.8-60.7,313-39.5c9.5-14.2,157.8-229.8,395.9-301.9l11.2-3.4l9.9,6.7
			c0.5,0.3,147.2,97.9,168.2,241c2.3,15.4,3.8,34.5,4.3,51c14.1,19.4,25.1,41.9,30.4,67.5c9.6,46.4,9.3,102.8-6.6,152.8
			c6.5,21.3,10.5,46,11.7,74.7c42.9,55.7,76.8,117.3,99.8,183.3c23.2,66.4,35.4,137.2,34.8,210.7c-0.5,58.5-9.2,115.3-25.1,169.5
			C1775.1,1452,1753.6,1501.1,1726.6,1547.2L1726.6,1547.2z"/>
		<path class="st1" d="M419.7,1445.1c22.3,19.8,31.8,43.9,26.9,85.6c-12.9-54-80.8-82.3-109.3-32.8c-23.9,41.4-14.5,108.1,7.4,153.7
			h281.1c5.1-22.1,2.6-50.3-2.1-69.9c-6.2-26.1-17.5-49.3-31.3-67c-3-3.9-6.2-7.6-9.4-10.9c0.5,19-1.4,38.5-4,57.9
			c-12.1-72-69.3-157.3-123.3-153c-8.8,0.7-16.7,5.1-23.1,12.4C427.3,1427.2,422.9,1435.3,419.7,1445.1L419.7,1445.1z"/>
		<path class="st1" d="M1398.3,1452.8c1.8-29.2,12.6-56,35.3-70.4c33.3-21.2,73.9-13,106.4,13.8c55.8-42.9,126.3,1.2,165.1,85.7
			c15.2-30.7,27.6-62.6,37.2-95.4c14.6-50,22.6-102.3,23.1-156.1c0.6-67.6-10.6-132.8-32-194c-27-77.3-57.5-130.1-102.7-183.7
			c7.8-56.7-3.7-127.6-24.4-180.6c9.4,6.8,18.1,14.5,25.8,23c8.7-83.4-31.8-154.9-77-227.7c11.3,5.7,23.1,12.7,34.8,20.9
			c-18.7-96.1-106.2-168.6-135.6-190.6c-191.5,62.7-317.8,222.8-349.1,265.9c17.3,7.5,33.3,17,47.6,29
			c-126.4-20.7-273.6-3.4-392.8,41.7C667,669.7,558.5,735.8,484.4,801.2c7.3-22.3,18.2-42.8,31.6-61.5
			c-70.3-9-243.2-19.5-398.6,63.4c-4.5,22.6-12.9,76.8,0.8,115.9c4.8-8.7,10.7-17,17.7-24.4c-4.2,43.8-5.9,103.4,27.9,136
			c1.5-7.5,3.3-15.1,5.4-22.9c6.9,50.6,35.9,136.5,94.1,183.9l11.3,9.2l-2.4,14.2c-10.6,62.4-12.3,125.7-3.9,188
			c3.9,28.7,9.9,57.3,18.2,85.5c2.1-5.1,4.5-10.1,7.2-14.9c16.6-29.6,43-47.9,74.8-47.9c1.7,0,3.4,0.1,5.1,0.2
			c5.2-14.6,12.4-27.3,21.3-37.5c15-17.2,34.4-27.6,56.9-29.4c30.1-2.4,60.8,11.4,87,36.5c13.3,13.3,22.9,27.3,29.8,41.9
			c67.3,22.8,94.5,93.8,103.8,132.9c6.1,25.7,8.1,54.1,3.8,81.5H1355c-10.2-38.7-12.1-82.2-2.7-121.3
			C1360.3,1497.1,1376.1,1469.4,1398.3,1452.8L1398.3,1452.8z"/>
		<path class="st2" d="M236.4,1164.7c8.2,9.8,17.1,18.9,26.9,26.8l11.3,9.2l-2.4,14.2c-10.6,62.4-12.3,125.7-3.9,188
			c3.9,28.7,9.9,57.3,18.2,85.5c2.1-5.1,4.5-10.1,7.2-14.9c16.6-29.6,43-47.9,74.8-47.9c1.7,0,3.4,0.1,5.1,0.2
			c5.2-14.6,12.4-27.3,21.3-37.5c2-2.3,4.1-4.5,6.3-6.6c-67.8-283.9,51.3-536.1,51.3-536.1c-104.7-8.3-202.5-4.5-288.5,19.5
			c79.2,8.3,157.4,43.9,157.4,43.9C248.1,1012.1,236.4,1164.4,236.4,1164.7L236.4,1164.7z"/>
		<path class="st2" d="M1624,1388.7c31.3,15.2,60.7,48.6,81.2,93.2c15.2-30.7,27.6-62.6,37.2-95.4c14.6-50,22.6-102.3,23.1-156.1
			c0.6-67.6-10.6-132.8-32-194c-8-22.8-16.2-43.5-25.1-62.6C1746.8,1083.8,1731.4,1248.3,1624,1388.7L1624,1388.7z M1085,1651.6
			H1355c-5.2-19.8-8.3-40.9-8.7-62C1272.1,1618.7,1185.5,1640.4,1085,1651.6z"/>
		<path class="st1" d="M1425.8,1551.1c-6.9-9.2-12.8-20.2-17.3-32.3c-3.1,6.9-5.7,14.6-7.7,22.9c-8.5,35.5-5,75.2,6.2,109.8h275.4
			c15.5-115-58.9-247.5-109.6-217.3c11.3,18.5,19.4,40.1,22.9,63.8c-32.1-56.1-99.4-100-140-69.5
			C1429.8,1448,1418.4,1504.8,1425.8,1551.1L1425.8,1551.1z"/>
		<path class="st2" d="M1518.7,1651.6h163.7c7.9-59-7.8-122.5-31.8-166.4C1688.4,1570.4,1640.9,1651.6,1518.7,1651.6z"/>
		<path class="st0" d="M506.5,1060.1c31.7-18.3,69.5-18.6,104.9-4.2c33.9,13.8,65.7,41,87.4,78.6c21.7,37.6,29.4,78.7,24.4,115
			c-5.3,37.9-24.4,70.5-56.1,88.8c-31.7,18.3-69.5,18.6-104.9,4.2c-33.9-13.8-65.7-41-87.4-78.6c-21.7-37.6-29.4-78.7-24.4-115
			C455.6,1111,474.8,1078.4,506.5,1060.1L506.5,1060.1z"/>
		<path class="st1" d="M597,1091.7c-24.6-10-50.2-10.1-71.1,1.9c-20.9,12.1-33.6,34.3-37.2,60.6c-3.9,27.9,2.4,60.2,19.7,90.2
			c17.3,30,42.2,51.6,68.3,62.2c24.6,10,50.2,10.1,71.1-1.9c20.9-12.1,33.6-34.3,37.2-60.6c3.9-27.9-2.4-60.2-19.7-90.2
			S623.1,1102.3,597,1091.7z"/>
		<path class="st0" d="M608.1,1190.3c29.2-16.9,66.5-6.9,83.4,22.3c16.9,29.2,6.9,66.5-22.3,83.4c-29.2,16.9-66.5,6.9-83.4-22.3
			C568.9,1244.5,578.9,1207.2,608.1,1190.3z"/>
		<path class="st1" d="M572.5,1204c9.1-5.3,20.8-2.1,26,7c5.3,9.1,2.1,20.8-7,26c-9.1,5.3-20.8,2.1-26-7
			C560.2,1220.9,563.3,1209.3,572.5,1204L572.5,1204z"/>
		<path class="st0" d="M1038.4,1294.8c2.7,4.1,5.2,8.4,7.5,12.8c29.7,57.6,15.2,124.2-32.4,148.7c-47.6,24.5-110.2-2.3-139.9-60
			c-6.3-12.2-10.6-24.8-13-37.3c39.3-15,63.7-28.1,78.5-62.1C972.8,1314.7,1007.3,1305.9,1038.4,1294.8L1038.4,1294.8z"/>
		<path class="st0" d="M899.3,1377.1c0.7,1.6,1.5,3.3,2.4,4.9c14.8,28.8,46.9,56.2,81.3,51.4c5.6-0.8,11-2.5,16-5.1
			c34.1-17.6,35.7-62.7,23.5-95.4c-23.2,6-46.3,8.2-69.4,2.9C939,1354.6,920.9,1366.9,899.3,1377.1L899.3,1377.1z"/>
		<path class="st3" d="M956.2,1430.9c8.5,2.7,17.5,3.7,26.7,2.4c5.6-0.8,11-2.5,16-5.1c23.8-12.3,31.8-38,30.3-63.6
			c-2.7-0.3-5.4-0.5-8.2-0.5c-35.8,0-64.8,29-64.8,64.8C956.2,1429.6,956.2,1430.2,956.2,1430.9L956.2,1430.9z"/>
		<path class="st0" d="M889.9,1161.8c35.1-12.4,64.8-19.2,74.4,8c9.6,27.2-8,68-43.1,80.4c-35.1,12.4-74.5-8.3-84.1-35.4
			S854.8,1174.2,889.9,1161.8L889.9,1161.8z"/>
		<path class="st0" d="M944.8,1316.3c-29.1,67-133.5,61.2-156.7,4.3c31.6,21.1,101.9,10.3,109.5-32.7c2.2-12.5,0.1-28.2-7.8-46.4
			l24.8-10.7l26-7.3c5.3,19.1,13.5,32.6,23.1,41c32.9,28.7,94.3-7.1,105.7-43.4C1087.1,1280,1009.6,1350.1,944.8,1316.3
			L944.8,1316.3z"/>
		<path class="st0" d="M363.8,878.2c-91.7-13.4-199.5-13-199.8-13c77.4-33.9,186.5-42.5,288.5-19.5l-25,31.1
			c-27.8,34.6-52.4,71.1-73.5,109c-21.2,38-39,77.5-53,118C302.1,1025.4,323.2,948.4,363.8,878.2L363.8,878.2z"/>
		<path class="st2" d="M389.3,1530.8c14.9-5,33.3,10,41.1,33.3c7.7,23.4,1.9,46.3-13,51.3c-14.9,5-33.3-10-41.1-33.3
			C368.6,1558.7,374.4,1535.8,389.3,1530.8z"/>
		<path class="st2" d="M489.4,1473.6c14.3-4.8,32,9.6,39.4,32c7.4,22.4,1.8,44.5-12.5,49.2s-32-9.6-39.4-32
			C469.5,1500.4,475.1,1478.3,489.4,1473.6z"/>
		<path class="st2" d="M585.9,1570.6c13.2-0.3,24.2,16.1,24.7,36.7c0.5,20.6-9.7,37.5-22.9,37.9c-13.2,0.3-24.2-16.1-24.7-36.7
			C562.5,1587.9,572.8,1570.9,585.9,1570.6L585.9,1570.6z"/>
		<path class="st2" d="M1391.1,1173c18.1-25.3,45.7-41.4,61.7-35.9c16,5.5,14.3,30.6-3.8,55.9c-18.1,25.3-45.7,41.4-61.7,35.9
			C1371.3,1223.4,1373,1198.4,1391.1,1173L1391.1,1173z"/>
		<path class="st2" d="M634,1387.4c-30.3,0.3-58.5,13.4-63,29.2c-4.5,15.8,16.4,28.4,46.7,28.1c30.3-0.3,58.5-13.4,63-29.2
			C685.2,1399.6,664.3,1387.1,634,1387.4z"/>
		<path class="st4" d="M1727.2,1019c-25.5-68-54.7-116.8-96.4-166.3c7.8-56.7-3.7-127.6-24.4-180.6c9.4,6.8,18.1,14.5,25.8,23
			c8.7-83.4-31.8-154.9-77-227.7c11.3,5.7,23.1,12.7,34.8,20.9c-18.7-96.1-106.2-168.6-135.6-190.6
			c-191.5,62.7-317.8,222.8-349.1,265.9c17.3,7.5,33.3,17,47.6,29c-91.7-15-194.3-10.1-289.3,11C700.7,697.4,725.4,920.4,902.7,906
			c103.4-8.4,137.7,18.2,161.8,145.1c42.6,223.9,306.9,247.2,343.1,69.7c23.3-114.1,101.7-123.9,172.7-31.7
			C1634.3,1159.3,1757.5,1132.2,1727.2,1019z"/>
		<path class="st5" d="M1727.2,1019l-0.1-0.3l-1.1-2.9l-0.1-0.2l-1.1-3l0,0l-1.2-3l0-0.1l-0.4-0.9l-0.8-2l-0.1-0.2l-1.1-2.7
			l-0.1-0.3l-0.2-0.6l-1-2.4l-0.2-0.5l-0.4-1l-0.4-1l-0.2-0.6l-0.2-0.4l-0.4-1l-0.4-1l-0.3-0.7l-0.1-0.2l-0.8-1.9l-0.3-0.8l0-0.1
			l-0.4-0.9l-0.4-0.9l-0.4-0.9l0,0l-1.2-2.8l0-0.1l-0.4-0.8l-0.8-1.8l-0.1-0.2l-1.3-2.9l-0.2-0.6l-0.4-0.9l-0.4-0.9l-0.2-0.5
			l-0.2-0.4l-0.4-0.9l-0.4-0.9l-0.3-0.6l-0.1-0.3v0c11.1,31.8,17.7,68.2,18.9,107.2C1733.1,1064.6,1733.8,1043.9,1727.2,1019
			L1727.2,1019z"/>
		<path class="st6" d="M1630.5,770.8c-4.1-34.7-12.7-69.4-24.1-98.6c9.4,6.8,18.1,14.5,25.8,23c8.7-83.4-31.8-154.9-77-227.7
			c11.3,5.7,23.1,12.7,34.8,20.9c-18.7-96.1-106.2-168.6-135.6-190.6c-191.5,62.7-317.8,222.8-349.1,265.9c17.3,7.5,33.3,17,47.6,29
			c-53.2-8.7-110.2-10.7-167.1-6.7c-101.6,73.8-12.1,306.3,207,175c86-51.6,171.4-38.8,213.3,39.4
			C1468.7,917.1,1626.5,902.5,1630.5,770.8L1630.5,770.8z"/>
		<path class="st0" d="M1151.8,899.2c32.8-18.9,71.8-19.2,108.5-4.3c35,14.2,67.9,42.4,90.3,81.2c22.4,38.8,30.4,81.4,25.2,118.8
			c-5.4,39.2-25.2,72.9-58,91.8c-32.8,18.9-71.8,19.2-108.5,4.3c-35-14.2-67.9-42.4-90.3-81.2c-22.4-38.8-30.4-81.4-25.2-118.8
			C1099.3,951.8,1119,918.1,1151.8,899.2L1151.8,899.2z"/>
		<path class="st1" d="M1245.3,931.9c-25.4-10.3-51.9-10.5-73.5,2c-21.6,12.5-34.7,35.5-38.5,62.7c-4,28.9,2.5,62.3,20.4,93.3
			c17.9,31,43.6,53.3,70.6,64.3c25.4,10.3,51.9,10.5,73.5-2c21.6-12.5,34.7-35.5,38.5-62.7c4-28.9-2.5-62.3-20.4-93.3
			C1298,965.2,1272.3,942.9,1245.3,931.9L1245.3,931.9z"/>
		<path class="st0" d="M1256.9,1033.9c30.2-17.4,68.8-7.1,86.2,23.1c17.4,30.2,7.1,68.8-23.1,86.2c-30.2,17.4-68.8,7.1-86.2-23.1
			C1216.3,1089.9,1226.7,1051.3,1256.9,1033.9z"/>
		<path class="st1" d="M1220,1048c9.4-5.4,21.5-2.2,26.9,7.2c5.4,9.4,2.2,21.5-7.2,26.9c-9.4,5.4-21.5,2.2-26.9-7.2
			C1207.4,1065.5,1210.6,1053.5,1220,1048z"/>
		<path class="st7" d="M1455.6,376.9c-59.5,67.6-103.9,207.9-6.4,301.8c0,0-84.4-48.2-124.2-64.5c-39.8-16.4-48.4-36.7-48.4-36.7
			s10.1-35.9,16.4-42.2c6.2-6.2,45.3-46.1,45.3-46.1S1374.6,441.4,1455.6,376.9L1455.6,376.9z"/>
		<path class="st0" d="M1306,577.4c64,28.8,139.6,84.6,170.5,137c-82.7-55-150-79.9-244.5-106.8l14.8-27.3
			c76.2-140.7,208.6-203.2,209-203.4C1401.2,438.5,1362.8,475.8,1306,577.4L1306,577.4z"/>
		<path class="st0" d="M694.8,825.9c26.6-8.8,44.3-57.5,48.6-75.9c15.4,32.7,52.9,71.1,82,62.3c35.3-10.8,43.1-82.7,42.1-122.6
			c18,27.3,55.6,45.9,85.3,34.7c37.6-14.2,51.7-67.8,52.2-101.3c21.5,41.3,21.3,120.8-28.1,145.1c-23.9,11.7-49.8,10-74.1-1.2
			c-4.8,36.7-17.5,61.9-33.8,77.7c-12.4,12-26.9,18.6-42,20.8c-14.6,2.1-29.5-0.3-43.5-6.4c-11.4-4.9-22.2-12.4-31.5-22
			c-18.2,35.5-61.2,51.1-98.5,30.4c-33.8-18.8-54.5-66.4-38.9-124.8C620.7,783.6,658.5,837.9,694.8,825.9L694.8,825.9z"/>
		<polygon class="st4" points="906.7,330.3 921.5,378.5 969.7,393.3 921.5,408.1 906.7,456.3 891.9,408.1 843.7,393.3 891.9,378.5 
					"/>
		<polygon class="st8" points="73,1109.2 83.3,1142.7 116.8,1153 83.3,1163.2 73,1196.7 62.8,1163.2 29.3,1153 62.8,1142.7 		"/>
		<polygon class="st8" points="1838.6,1470.4 1852.5,1515.8 1897.9,1529.7 1852.5,1543.6 1838.6,1589 1824.6,1543.6 1779.2,1529.7 
			1824.6,1515.8 		"/>
		<polygon class="st6" points="1903.8,1006.2 1919.5,1057.4 1970.7,1073.1 1919.5,1088.8 1903.8,1139.9 1888.1,1088.8 
			1836.9,1073.1 1888.1,1057.4 		"/>
		<polygon class="st4" points="1782.7,437.6 1801.6,499 1863,517.9 1801.6,536.8 1782.7,598.3 1763.8,536.8 1702.3,517.9 
			1763.8,499 		"/>
		<polygon class="st6" points="138,1469.2 153.1,1518.4 202.4,1533.5 153.1,1548.6 138,1597.9 122.9,1548.6 73.6,1533.5 
			122.9,1518.4 		"/>
		<polygon class="st6" points="574.6,510.9 584.5,543.2 616.8,553.1 584.5,563 574.6,595.2 564.7,563 532.4,553.1 564.7,543.2 		"/>
	</g>
</g>
</svg>
